<mxfile host="app.diagrams.net" modified="2022-02-21T11:00:32.050Z" agent="5.0 (Windows NT 10.0; WOW64) AppleWebKit/537.36 (KHTML, like Gecko) Chrome/98.0.4758.102 Safari/537.36" etag="kcIaDp5nQ-SrF6udSRfH" version="16.6.1" type="github">
  <diagram id="C5RBs43oDa-KdzZeNtuy" name="Page-1">
    <mxGraphModel dx="1328" dy="1914" grid="1" gridSize="10" guides="1" tooltips="1" connect="1" arrows="1" fold="1" page="1" pageScale="1" pageWidth="827" pageHeight="1169" math="0" shadow="0">
      <root>
        <mxCell id="WIyWlLk6GJQsqaUBKTNV-0" />
        <mxCell id="WIyWlLk6GJQsqaUBKTNV-1" parent="WIyWlLk6GJQsqaUBKTNV-0" />
        <mxCell id="f4ynN3spiXqNrgS7SCf1-6" value="" style="shape=image;verticalLabelPosition=bottom;verticalAlign=top;imageAspect=0;aspect=fixed;image=data:image/svg+xml,PHN2ZyB4bWxucz0iaHR0cDovL3d3dy53My5vcmcvMjAwMC9zdmciIHhtbG5zOnhsaW5rPSJodHRwOi8vd3d3LnczLm9yZy8xOTk5L3hsaW5rIiB3aWR0aD0iMTIwIiBoZWlnaHQ9IjYwIiB2aWV3Qm94PSIwIDAgMTIwIDYwIj48c3R5bGU+LkN7ZmlsbC1ydWxlOmV2ZW5vZGR9PC9zdHlsZT48cGF0aCBkPSJNNDcuMjEyIDI1LjlINDMuNTN2LTIuMTk4aDkuODZWMjUuOWgtMy42ODJ2MTFoLTIuNDk1em04LjQ1IDkuMjA0YzEtLjAwNSAxLjk5NC0uMTU4IDIuOTUtLjQ1NWwuMzggMS44MmExMC4zNSAxMC4zNSAwIDAgMS0zLjU0My42MzJjLTMuMDMyIDAtNC4wOC0xLjQtNC4wOC0zLjcydi0yLjUyNmMwLTIuMDQuOS0zLjggMy45OTgtMy44czMuOCAxLjggMy44IDMuODc4djIuMDZoLTUuMzd2LjQ5M2MwIDEuMTU2LjQgMS42IDEuODc2IDEuNnptLTEuODk1LTQuMDZoMy4wN3YtLjQ3NGMwLS45LS4yNzgtMS41NC0xLjQ2NS0xLjU0cy0xLjYwNC42MzItMS42MDQgMS41NHoiLz48dXNlIHhsaW5rOmhyZWY9IiNCIi8+PHVzZSB4bGluazpocmVmPSIjQiIgeD0iNS44OTkiLz48cGF0aCBkPSJNNzkuNTc3IDM2Ljg3NUg3Ny42bC0uMTc3LS42MzJhNS4yOSA1LjI5IDAgMCAxLTIuODY4Ljg1M2MtMS43NjIgMC0yLjUyNi0xLjIwNi0yLjUyNi0yLjg2OCAwLTEuOTU4Ljg1My0yLjcgMi44LTIuN2gyLjMxOHYtMWMwLTEuMDY3LS4yOTctMS40NDYtMS44MzgtMS40NDZhMTMuNDcgMTMuNDcgMCAwIDAtMi42NzIuMjk3bC0uMjk3LTEuODM4YTEyLjU4IDEyLjU4IDAgMCAxIDMuMzAzLS40NTVjMy4wMzIgMCAzLjkyMiAxLjA2NyAzLjkyMiAzLjQ4N3ptLTIuNDEzLTMuNjQ0aC0xLjc4Yy0uOCAwLTEgLjIxNS0xIC45NDdzLjIxNS45NzMuOTczLjk3M2EzLjc5IDMuNzkgMCAwIDAgMS44MTktLjQ5M3ptOS44NC04LjJhNy4xNSA3LjE1IDAgMCAwLTEuMzgzLS4xNThjLS45NDcgMC0xLjA4Ni40MTctMS4wODYgMS4xNXYxLjIwNmgyLjQ1bC0uMTQgMS44OTVoLTIuMzE4djcuNzE4aC0yLjQxM1YyOS4xNmgtMS41NDd2LTEuODk1aDEuNTR2LTEuMzdjMC0yLjAwMi45MjgtMi45ODggMy4wNy0yLjk4OGE3LjY1IDcuNjUgMCAwIDEgMi4wNzguMjc4em00LjcxMiAxMi4wMzZjLTMuMzAzIDAtNC4xOTQtMS44Mi00LjE5NC0zLjhWMzAuODVjMC0xLjk3Ny45LTMuOCA0LjE5NC0zLjhzNC4yIDEuODIgNC4yIDMuOHYyLjQzOGMtLjAwNiAxLjk2NC0uODk3IDMuOC00LjIgMy44em0wLTcuOTc3Yy0xLjI2MyAwLTEuNzguNTc1LTEuNzggMS42NnYyLjU5NmMwIDEuMDg2LjQ5MyAxLjY2IDEuNzggMS42NnMxLjc4LS41NzUgMS43OC0xLjY2VjMwLjc2YzAtMS4wOTMtLjUtMS42NjctMS43OC0xLjY2N3ptMTAuNC4xNThhMTguNjMgMTguNjMgMCAwIDAtMi41MjYgMS40MXY2LjIxNWgtMi40NHYtOS42NDVoMi4wNGwuMTU4IDEuMDY3YTEwLjggMTAuOCAwIDAgMSAyLjUyNi0xLjI2M3ptNi42NCA3LjYyN3YtNi43MjdjMC0uNTEyLS4yMTUtLjc3LS43Ny0uNzctLjg4OC4xLTEuNzQ4LjM3Ni0yLjUyNi44MTV2Ni43aC0yLjR2LTkuNjQ1aDEuODM4bC4yNC44MTVhOS42NCA5LjY0IDAgMCAxIDMuODYtMS4wMSAxLjgzIDEuODMgMCAwIDEgMS44MTkgMS4wM2MxLjIwNC0uNjE2IDIuNTI3LS45NjcgMy44NzgtMS4wMyAxLjYwNCAwIDIuMTggMS4xMyAyLjE4IDIuODV2Ni45ODZoLTIuNDEzdi02LjcyN2MwLS41MTItLjIxNS0uNzctLjc3LS43N2E2LjM5IDYuMzkgMCAwIDAtMi41MjYuODE1djYuN3oiLz48ZyB0cmFuc2Zvcm09Im1hdHJpeCguNTQ5NjIxIDAgMCAuNTQ5NjIxIDYuMTcxMTQxIDQyLjcyMjc0MSkiIGNsYXNzPSJDIj48cGF0aCBkPSJNMzkuMS04LjcxM3YtLjE2bC0yMS4xNi0xMi4yMnYyNC40M2wyMS4xNiAxMi4yMnptMC0yNy4yOHYyNC40NGwtMjEuMTYtMTIuMjJ2LTI0LjQ0eiIgZmlsbD0iIzVjNGVlNSIvPjxwYXRoIGQ9Ik00MS40Mi0xMS41NTNsMjEuMTctMTIuMjJ2LTI0LjQ0bC0yMS4xNyAxMi4yMnoiIGZpbGw9IiM0MDQwYjIiLz48ZyBmaWxsPSIjNWM0ZWU1Ij48cGF0aCBkPSJNLTUuNTQtMzcuNDEzbDIxLjE2IDEyLjIydi0yNC40NGwtMjEuMTYtMTIuMjJ6Ii8+PHBhdGggZD0iTTUzLjY0LS40ODMiLz48cGF0aCBkPSJNMTcuOTQtMjEuMDkzIi8+PC9nPjwvZz48ZGVmcz48cGF0aCBpZD0iQiIgZD0iTTY1LjYwNSAyOS4yNThjLS44NzcuNDA0LTEuNzIyLjg3NS0yLjUyNiAxLjQxdjYuMjE1aC0yLjQ0NHYtOS42NDVoMi4wNGwuMTU4IDEuMDY3YTEwLjggMTAuOCAwIDAgMSAyLjUyNi0xLjI2M3oiLz48L2RlZnM+PC9zdmc+;imageBackground=none;" vertex="1" parent="WIyWlLk6GJQsqaUBKTNV-1">
          <mxGeometry x="354" y="-890" width="120" height="60" as="geometry" />
        </mxCell>
        <mxCell id="f4ynN3spiXqNrgS7SCf1-7" value="" style="sketch=0;outlineConnect=0;fontColor=#232F3E;gradientColor=none;fillColor=#232F3D;strokeColor=none;dashed=0;verticalLabelPosition=bottom;verticalAlign=top;align=center;html=1;fontSize=12;fontStyle=0;aspect=fixed;pointerEvents=1;shape=mxgraph.aws4.documents2;" vertex="1" parent="WIyWlLk6GJQsqaUBKTNV-1">
          <mxGeometry x="380" y="-1050" width="67" height="78" as="geometry" />
        </mxCell>
        <mxCell id="f4ynN3spiXqNrgS7SCf1-8" value="" style="verticalLabelPosition=bottom;sketch=0;aspect=fixed;html=1;verticalAlign=top;strokeColor=none;align=center;outlineConnect=0;shape=mxgraph.citrix.database_server;" vertex="1" parent="WIyWlLk6GJQsqaUBKTNV-1">
          <mxGeometry x="520" y="-560" width="80" height="90" as="geometry" />
        </mxCell>
        <mxCell id="f4ynN3spiXqNrgS7SCf1-9" value="" style="outlineConnect=0;dashed=0;verticalLabelPosition=bottom;verticalAlign=top;align=center;html=1;shape=mxgraph.aws3.dynamo_db;fillColor=#7A7A7A;" vertex="1" parent="WIyWlLk6GJQsqaUBKTNV-1">
          <mxGeometry x="278" y="-625" width="72" height="81" as="geometry" />
        </mxCell>
      </root>
    </mxGraphModel>
  </diagram>
</mxfile>
